<?xml version="1.0" encoding="utf-8"?>
<!-- Generator: Adobe Illustrator 22.0.1, SVG Export Plug-In . SVG Version: 6.00 Build 0)  -->
<svg version="1.1" id="图层_1" xmlns="http://www.w3.org/2000/svg" xmlns:xlink="http://www.w3.org/1999/xlink" x="0px" y="0px"
	 viewBox="0 0 280 18" style="enable-background:new 0 0 280 18;" xml:space="preserve">
<style type="text/css">
	.st0{fill:#9F9F9F;}
</style>
<title>KIKYO SPACE · SHANGH</title>
<desc>Created with Sketch.</desc>
<g id="KIKYO-SPACE-·-SHANGH">
	<path class="st0" d="M2,1.6h1.6v5.9l6.3-5.9h2.1L4.5,8.7l8.2,8.7h-2.1l-6.9-7.4v7.4H2V1.6z M14.8,1.6h1.6v15.8h-1.6V1.6z M20,1.6
		h1.6v5.9l6.3-5.9H30l-7.6,7.1l8.2,8.7h-2.1l-6.9-7.4v7.4H20V1.6z M31.7,1.6h1.8l4,6.5l4-6.5h1.8l-5,8.2v7.5h-1.5V9.9L31.7,1.6z
		 M45.3,9.6c0-1.5,0.4-2.9,1.1-4.2s1.7-2.3,3-3c1.3-0.7,2.7-1.1,4.2-1.1c1.5,0,2.9,0.4,4.2,1.1c1.3,0.7,2.3,1.7,3.1,3S62,8,62,9.5
		s-0.4,2.9-1.1,4.2c-0.7,1.3-1.7,2.3-3,3c-1.3,0.7-2.7,1.1-4.2,1.1s-2.9-0.4-4.2-1.1c-1.3-0.7-2.3-1.7-3-3
		C45.7,12.5,45.3,11.1,45.3,9.6z M60.3,9.5c0-1.9-0.7-3.5-2-4.8c-1.3-1.3-2.9-2-4.7-2c-1.9,0-3.5,0.7-4.7,2S47,7.7,47,9.5
		s0.7,3.5,2,4.8s2.9,2,4.7,2c1.8,0,3.4-0.6,4.7-1.9S60.3,11.5,60.3,9.5z M69,14.5l1.3-0.8c0.9,1.7,2,2.6,3.3,2.6
		c0.8,0,1.5-0.3,2.1-0.8c0.6-0.5,0.9-1.2,0.9-1.9c0-0.6-0.2-1.2-0.7-1.8s-1.3-1.3-2.4-2.2c-1.1-0.8-1.9-1.5-2.3-1.9
		c-0.4-0.4-0.7-0.9-0.9-1.3c-0.2-0.5-0.3-1-0.3-1.4c0-1,0.4-1.9,1.1-2.6c0.7-0.7,1.6-1.1,2.7-1.1c0.9,0,1.6,0.2,2.3,0.6
		C76.7,2.3,77.4,3,78,3.8l-1.3,1c-0.4-0.6-0.8-1-1.3-1.4s-1-0.6-1.6-0.6c-0.6,0-1.2,0.2-1.6,0.6s-0.6,0.9-0.6,1.5s0.2,1.1,0.5,1.5
		c0.4,0.4,1.2,1.1,2.4,2.1c1.3,0.9,2.2,1.8,2.8,2.6c0.6,0.8,0.9,1.6,0.9,2.5c0,1.1-0.4,2.1-1.3,3c-0.9,0.8-1.9,1.3-3.1,1.3
		C71.8,17.8,70.1,16.7,69,14.5z M81.6,1.6h3.1c1.9,0,3.1,0.1,3.7,0.2c0.6,0.1,1.1,0.4,1.6,0.8s0.8,0.8,1.1,1.4s0.4,1.2,0.4,1.8
		c0,1.1-0.3,2-0.9,2.7s-1.3,1.1-2.2,1.3s-2.2,0.3-4.1,0.3h-1.1v7.3h-1.6V1.6z M83.2,3.2v5.4h2.7c1.6,0,2.7-0.2,3.2-0.8
		c0.5-0.6,0.8-1.2,0.8-1.9c0-1.8-1.3-2.7-3.8-2.7H83.2z M101.1,1l7.4,16.4h-1.7l-2.5-5.4h-6.8L95,17.4h-1.8L100.7,1H101.1z
		 M100.9,4.5l-2.7,5.9h5.4L100.9,4.5z M125.6,4.6l-1.2,0.9c-1.5-1.8-3.4-2.7-5.7-2.7c-1.9,0-3.5,0.7-4.9,2s-2,2.9-2,4.9
		s0.7,3.5,2,4.8s3,1.9,5,1.9c2.2,0,4.1-0.9,5.6-2.6l1.2,0.9c-0.8,1-1.8,1.8-2.9,2.3c-1.2,0.5-2.5,0.8-3.9,0.8
		c-2.5,0-4.6-0.8-6.2-2.4c-1.6-1.6-2.4-3.6-2.4-6c0-1.5,0.4-2.9,1.1-4.1s1.8-2.3,3.1-3c1.3-0.7,2.7-1.1,4.2-1.1s2.9,0.3,4.1,0.9
		C123.9,2.7,124.8,3.5,125.6,4.6z M128.8,1.6h9.1v1.6h-7.5v4.9h7.4v1.5h-7.4v6.2h7.4v1.6h-9V1.6z M153.5,5.6c0.6,0,1.2,0.2,1.6,0.7
		c0.4,0.4,0.7,1,0.7,1.6c0,0.6-0.2,1.2-0.7,1.6c-0.4,0.4-1,0.7-1.6,0.7c-0.7,0-1.2-0.2-1.6-0.7c-0.5-0.5-0.7-1-0.7-1.6
		c0-0.7,0.2-1.2,0.7-1.6C152.3,5.9,152.8,5.6,153.5,5.6z M166.8,14.5l1.3-0.8c0.9,1.7,2,2.6,3.3,2.6c0.8,0,1.5-0.3,2.1-0.8
		c0.6-0.5,0.9-1.2,0.9-1.9c0-0.6-0.2-1.2-0.7-1.8c-0.5-0.6-1.3-1.3-2.4-2.2c-1.1-0.8-1.9-1.5-2.3-1.9c-0.4-0.4-0.7-0.9-0.9-1.3
		c-0.2-0.5-0.3-1-0.3-1.4c0-1,0.4-1.9,1.1-2.6c0.7-0.7,1.6-1.1,2.7-1.1c0.9,0,1.6,0.2,2.3,0.6s1.3,1.1,1.9,1.9l-1.3,1
		c-0.4-0.6-0.8-1-1.3-1.4s-1-0.6-1.6-0.6s-1.2,0.2-1.6,0.6c-0.4,0.4-0.6,0.9-0.6,1.5s0.2,1.1,0.5,1.5c0.4,0.4,1.2,1.1,2.4,2.1
		c1.3,0.9,2.2,1.8,2.8,2.6c0.6,0.8,0.9,1.6,0.9,2.5c0,1.1-0.4,2.1-1.3,3c-0.9,0.8-1.9,1.3-3.1,1.3C169.5,17.8,167.9,16.7,166.8,14.5
		z M179.3,1.6h1.6v6.6h8V1.6h1.6v15.8H189V9.8h-8v7.6h-1.6V1.6z M200.8,1l7.4,16.4h-1.7L204,12h-6.8l-2.5,5.4H193L200.4,1H200.8z
		 M200.6,4.5l-2.7,5.9h5.4L200.6,4.5z M210.7,17.4V1.6h0.4l10.5,12.1V1.6h1.6v15.8h-0.4L212.3,5.5v11.9H210.7z M242.2,4.3L241,5.4
		c-0.9-0.9-1.8-1.5-2.9-2c-1-0.5-2.1-0.7-3.2-0.7c-1.1,0-2.2,0.3-3.3,0.9s-2,1.4-2.6,2.4S228,8.3,228,9.4c0,1.8,0.7,3.5,2.1,4.8
		c1.4,1.4,3.1,2.1,5.2,2.1c1.6,0,2.9-0.4,4.1-1.3s1.8-2.1,2-3.6h-5V9.9h6.8c0,2.5-0.8,4.5-2.2,5.9c-1.5,1.4-3.4,2.1-5.7,2.1
		c-2.7,0-4.9-0.8-6.5-2.5c-1.6-1.7-2.4-3.6-2.4-5.8s0.8-4.2,2.4-5.8c1.6-1.6,3.7-2.5,6.4-2.5C237.7,1.2,240.1,2.3,242.2,4.3z
		 M246.1,1.6h1.6v6.6h8V1.6h1.6v15.8h-1.6V9.8h-8v7.6h-1.6V1.6z M267.6,1l7.4,16.4h-1.7l-2.5-5.4H264l-2.5,5.4h-1.8L267.2,1H267.6z
		 M267.4,4.5l-2.7,5.9h5.4L267.4,4.5z M277.2,1.6h1.6v15.8h-1.6V1.6z"/>
</g>
</svg>
